<svg width="486" height="454" viewBox="0 0 486 454" fill="none" xmlns="http://www.w3.org/2000/svg">
<path d="M142 398.868L150.4 321.011L170.8 322.209C170.8 344.168 183.8 361.936 209.8 375.511C236.2 388.687 266 395.275 299.2 395.275C332.8 395.275 358 390.284 374.8 380.302C391.6 369.921 400 356.945 400 341.374C400 315.022 386 291.465 358 270.703C346.4 262.319 334.2 254.932 321.4 248.544C292.2 233.372 273.8 223.789 266.2 219.797C259 215.405 250.8 211.013 241.6 206.621C232.4 202.229 223.8 197.637 215.8 192.846C208.2 187.656 200 181.467 191.2 174.28C171.2 158.31 161.2 140.542 161.2 120.978C161.2 101.015 164.6 83.6465 171.4 68.8736C178.6 54.1007 187.4 42.522 197.8 34.1374C208.6 25.7528 221.2 18.7656 235.6 13.1758C260 4.39194 287.2 0 317.2 0C347.6 0 376.8 7.58608 404.8 22.7582L397.6 92.2308H377.2C377.2 54.6996 345.6 35.9341 282.4 35.9341C253.2 35.9341 231.2 40.5256 216.4 49.7088C202 58.8919 194.8 71.4689 194.8 87.4396C194.8 112.993 236.4 143.736 319.6 179.67C374.4 203.227 409.4 229.379 424.6 258.126C432.2 272.5 436 288.271 436 305.44C436 346.963 419.2 379.104 385.6 401.863C352.4 424.621 312.2 436 265 436C217.8 436 176.8 423.623 142 398.868Z" fill="black"/>
<path d="M157.693 322.738L188.36 350.973L285.845 282.692L284.541 275.891L232.035 223.955L223.243 222.782L157.693 322.738Z" fill="#1952A5"/>
<path d="M469.482 29.306C480.784 40.122 482.767 56.6162 473.977 66.7064L285.844 282.692L223.242 222.782L431.83 26.3725C441.576 17.1961 458.18 18.4899 469.482 29.306Z" fill="#FFAD6A"/>
<path d="M469.867 29.6409C458.618 18.8813 442.12 17.5507 432.352 26.5737C433.983 27.6592 435.553 28.9062 437.031 30.3188C448.337 41.1332 450.32 57.625 441.527 67.7139L268.571 266.172L286.157 282.993L474.363 67.0361C483.156 56.9463 481.173 40.4545 469.867 29.6409Z" fill="#EA875C"/>
<path d="M268.56 266.142L173.166 332.774L159.734 320.442L158.157 322.84L188.788 350.962L286.166 282.944L268.56 266.142Z" fill="#03427A"/>
<path d="M104.824 412.443L92.0723 411.614C85.2162 411.166 80.1509 405.051 80.9993 398.242C81.5976 393.44 79.0972 389.011 75.1129 386.858C53.4989 428.346 7.81921 437.509 7.81921 437.509C55.1 449.932 91.3939 447.437 118.173 439.871L119.399 430.039C120.515 421.079 113.847 413.029 104.824 412.443Z" fill="#FFCE56"/>
<path d="M70.5229 454C50.1287 454 28.5107 451.021 5.82924 445.06C2.31031 444.134 -0.104071 440.91 0.00345209 437.279C0.110975 433.648 2.71303 430.57 6.27888 429.853C6.68356 429.771 48.6273 420.778 68.175 383.256C69.1427 381.4 70.8161 380.008 72.82 379.393C74.8218 378.784 76.9899 378.995 78.8354 379.992C85.8459 383.781 89.7421 391.324 88.7588 399.208C88.5672 400.741 89.2495 401.828 89.6717 402.339C90.0959 402.851 91.0363 403.723 92.5807 403.825L105.331 404.654C111.771 405.074 117.825 408.162 121.938 413.128C126.052 418.096 127.954 424.612 127.156 431.007L125.93 440.839C125.543 443.955 123.324 446.533 120.3 447.387C104.688 451.796 88.055 454 70.5229 454ZM35.5545 435.452C62.9102 439.885 88.2055 439.297 111.065 433.673L111.638 429.076C111.909 426.9 111.288 424.77 109.886 423.08C108.484 421.389 106.508 420.378 104.314 420.236L91.5622 419.406C86.1528 419.055 81.0699 416.46 77.6174 412.291C75.6097 409.866 74.2295 407.001 73.557 403.971C62.1028 419.293 47.7749 429.201 35.5545 435.452Z" fill="black"/>
<path d="M169.747 332.886C150.458 313.627 119.184 313.627 99.8945 332.886C95.0638 337.709 91.0503 344.979 88.2664 350.973C85.7308 356.433 84.0398 362.211 82.468 368.021C80.5932 374.954 78.0634 381.189 75.1095 386.856C79.0957 389.011 81.5941 393.438 80.9959 398.24C80.1474 405.047 85.2128 411.165 92.0688 411.612L104.821 412.441C113.843 413.029 120.512 421.079 119.393 430.039L118.168 439.871C141.885 433.17 158.162 422.506 167.679 414.536C175.381 408.086 181.77 400.018 184.908 390.485C191.553 370.306 185.418 348.535 169.747 332.886Z" fill="#EDEBDC"/>
<path d="M118.173 447.679C116.326 447.679 114.513 447.025 113.079 445.796C111.088 444.09 110.089 441.505 110.412 438.907L111.638 429.074C111.909 426.898 111.288 424.768 109.886 423.078C108.484 421.387 106.506 420.376 104.314 420.234L91.5642 419.404C86.1548 419.053 81.0719 416.458 77.6194 412.289C74.165 408.117 72.5697 402.648 73.2383 397.278C73.4573 395.513 72.3801 394.26 71.3889 393.725C67.6354 391.697 66.2044 387.035 68.173 383.256C71.0781 377.681 73.2853 372.032 74.9196 365.987C76.4327 360.392 78.29 353.902 81.1735 347.69C85.2848 338.842 89.7226 332.004 94.3656 327.368C116.674 305.095 152.971 305.095 175.278 327.368C193.214 345.279 199.756 370.398 192.342 392.923C188.978 403.146 182.372 412.429 172.709 420.523C162.793 428.825 145.65 440.226 120.302 447.387C119.6 447.582 118.883 447.679 118.173 447.679ZM84.7355 384.898C87.8986 388.841 89.4137 393.948 88.7588 399.206C88.5672 400.739 89.2495 401.826 89.6717 402.337C90.096 402.849 91.0363 403.721 92.5807 403.823L105.331 404.653C111.773 405.072 117.825 408.16 121.938 413.126C125.553 417.489 127.459 423.048 127.328 428.67C143.871 422.492 155.452 414.588 162.658 408.555C170.056 402.363 175.043 395.464 177.483 388.049C183.127 370.896 178.167 352.34 164.216 338.408C148.008 322.226 121.633 322.226 105.423 338.408C102.129 341.699 98.6509 347.179 95.3626 354.259C92.9971 359.352 91.3647 365.085 90.0197 370.059C88.6493 375.12 86.8801 380.09 84.7355 384.898Z" fill="black"/>
<path d="M112.731 363.21C111.024 363.21 109.302 362.673 107.864 361.565C104.495 358.974 103.946 354.24 106.636 350.997C113.346 342.905 123.355 338.265 134.097 338.265C138.409 338.265 141.904 341.632 141.904 345.785C141.904 349.938 138.409 353.306 134.097 353.306C128.129 353.306 122.566 355.885 118.836 360.384C117.295 362.242 115.025 363.21 112.731 363.21Z" fill="black"/>
</svg>
